<svg width="529" height="234" viewBox="0 0 529 234" fill="none" xmlns="http://www.w3.org/2000/svg">
<path d="M399.005 76.1397C399.002 74.4065 400.406 73 402.14 73H513.635C516.243 73 518.414 75.0051 518.619 77.6053L521.232 110.6C521.334 111.885 520.318 112.985 519.028 112.985V112.985C517.866 112.985 516.906 112.085 516.801 110.928C516.176 104.036 514.902 98.7026 512.978 94.9271C510.868 90.7055 507.975 87.6569 504.301 85.7811C500.627 83.9051 494.803 82.9671 486.83 82.9671H442.775C438.612 82.9671 436.272 87.7568 438.831 91.0404L478.47 141.909C479.925 143.776 479.871 146.408 478.341 148.214L432.826 201.959C430.075 205.208 432.384 210.19 436.642 210.19H486.243C497.188 210.19 505.552 208.431 511.337 204.914C516.717 201.642 520.846 195.056 523.725 185.157C524.093 183.892 525.378 183.112 526.66 183.415V183.415C527.877 183.704 528.674 184.872 528.499 186.11L522.616 227.7C522.267 230.167 520.156 232 517.665 232H402.095C400.389 232 399.006 230.617 399.006 228.911V228.911C399.006 228.18 399.266 227.473 399.739 226.915L457.584 158.65C459.117 156.841 459.169 154.206 457.71 152.338L399.669 78.0654C399.24 77.5154 399.006 76.8377 399.005 76.1397V76.1397Z" fill="url(#paint0_linear_219_10)"/>
<path d="M421.62 23.785C425.477 23.785 428.358 24.9767 430.265 27.36C432.215 29.7 432.865 32.8417 432.215 36.785L428.64 57H425.325L428.9 36.785C429.42 33.7517 429.008 31.3467 427.665 29.57C426.322 27.7933 424.112 26.905 421.035 26.905C417.698 26.905 414.773 28.01 412.26 30.22C409.79 32.43 408.187 35.6367 407.45 39.84V39.775L404.395 57H401.145L406.865 24.5H410.115L409.14 30.155C412.217 25.9083 416.377 23.785 421.62 23.785ZM441.864 29.31L442.384 26.19H469.034L468.514 29.31H441.864ZM439.524 42.31L440.109 39.19H466.759L466.174 42.31H439.524ZM488.737 11.5H491.662L483.667 57H480.222L487.567 15.4L476.452 18.65L476.127 15.595L488.737 11.5ZM526.764 23.33C525.94 28.0967 523.124 31.52 518.314 33.6C520.567 34.6833 522.257 36.2433 523.384 38.28C524.51 40.3167 524.857 42.6133 524.424 45.17C523.687 49.2 521.737 52.2983 518.574 54.465C515.41 56.6317 511.575 57.715 507.069 57.715C502.822 57.715 499.442 56.5233 496.929 54.14C494.459 51.7133 493.592 48.5067 494.329 44.52C494.762 41.8767 495.867 39.6017 497.644 37.695C499.464 35.7883 501.717 34.3583 504.404 33.405C502.584 32.3217 501.219 30.87 500.309 29.05C499.442 27.1867 499.204 25.085 499.594 22.745C500.287 18.8883 502.107 15.9417 505.054 13.905C508.044 11.825 511.467 10.785 515.324 10.785C518.964 10.785 521.954 11.9333 524.294 14.23C526.634 16.4833 527.457 19.5167 526.764 23.33ZM511.619 31.975C514.609 31.975 517.165 31.1733 519.289 29.57C521.455 27.9667 522.799 25.8 523.319 23.07C523.795 20.2533 523.21 18.065 521.564 16.505C519.96 14.9017 517.707 14.1 514.804 14.1C511.857 14.1 509.279 14.9017 507.069 16.505C504.902 18.065 503.559 20.2533 503.039 23.07C502.562 25.8 503.147 27.9667 504.794 29.57C506.44 31.1733 508.715 31.975 511.619 31.975ZM520.914 44.845C521.434 41.8983 520.762 39.58 518.899 37.89C517.079 36.2 514.457 35.355 511.034 35.355C507.524 35.355 504.555 36.2 502.129 37.89C499.745 39.58 498.294 41.8983 497.774 44.845C497.21 47.835 497.839 50.175 499.659 51.865C501.479 53.555 504.144 54.4 507.654 54.4C511.207 54.4 514.175 53.555 516.559 51.865C518.942 50.175 520.394 47.835 520.914 44.845Z" fill="url(#paint1_linear_219_10)"/>
<path d="M35.363 194.364C27.5097 194.364 20.979 192.587 15.771 189.032C10.6457 185.395 7.38038 180.352 5.97505 173.904L11.803 170.928C12.795 176.219 15.3164 180.393 19.367 183.452C23.4177 186.511 28.8324 188.04 35.611 188.04C42.307 188.04 47.8044 186.635 52.103 183.824C56.4844 180.931 59.171 177.045 60.163 172.168C60.7417 169.275 60.6177 166.753 59.791 164.604C59.047 162.455 57.4764 160.595 55.0791 159.024C52.6817 157.371 50.5324 156.131 48.631 155.304C46.8124 154.395 44.0844 153.279 40.4471 151.956C37.6364 150.964 35.2804 150.096 33.379 149.352C31.4777 148.525 29.287 147.368 26.807 145.88C24.4097 144.309 22.5084 142.697 21.103 141.044C19.7804 139.308 18.747 137.117 18.003 134.472C17.3417 131.827 17.3004 128.933 17.879 125.792C19.2017 119.096 22.591 113.929 28.047 110.292C33.5857 106.655 39.7857 104.836 46.647 104.836C53.6737 104.836 59.3777 106.531 63.759 109.92C68.1404 113.227 71.1577 117.567 72.8111 122.94L66.9831 125.916C63.9244 116.079 57.0217 111.16 46.275 111.16C40.9844 111.16 36.2724 112.524 32.139 115.252C28.0884 117.98 25.567 121.7 24.575 126.412C23.9964 129.305 24.079 131.827 24.823 133.976C25.6497 136.125 27.2204 138.027 29.535 139.68C31.9324 141.251 34.0817 142.491 35.983 143.4C37.8844 144.227 40.6124 145.301 44.1671 146.624C47.143 147.699 49.499 148.608 51.235 149.352C53.0537 150.096 55.2444 151.253 57.807 152.824C60.3697 154.395 62.2711 156.007 63.511 157.66C64.8337 159.313 65.8257 161.504 66.4871 164.232C67.2311 166.877 67.3137 169.771 66.735 172.912C65.3297 179.856 61.775 185.188 56.071 188.908C50.367 192.545 43.4644 194.364 35.363 194.364ZM94.1836 106.2H100.756L85.5036 193H78.9316L94.1836 106.2ZM196.801 152.576L196.181 155.8C194.197 166.795 188.824 175.971 180.061 183.328C171.381 190.685 160.924 194.364 148.689 194.364C135.132 194.364 124.716 189.859 117.441 180.848C110.167 171.837 107.645 160.925 109.877 148.112C112.027 135.795 117.979 125.503 127.733 117.236C137.488 108.969 148.689 104.836 161.337 104.836C169.687 104.836 176.837 106.737 182.789 110.54C188.741 114.26 193.329 119.344 196.553 125.792L190.725 128.892C184.773 117.071 174.895 111.16 161.089 111.16C149.929 111.16 140.133 114.797 131.701 122.072C123.269 129.347 118.144 138.357 116.325 149.104C114.507 160.016 116.573 169.233 122.525 176.756C128.56 184.279 137.364 188.04 148.937 188.04C158.94 188.04 167.537 185.271 174.729 179.732C182.004 174.111 186.757 167.125 188.989 158.776H152.161L153.277 152.576H196.801ZM299.945 106.2L284.693 193H278.121L291.513 116.492L250.469 169.192H249.353L226.413 115.376L212.773 193H206.201L221.453 106.2H229.265L251.337 157.908L291.513 106.2H299.945ZM364.877 193L360.413 170.928H316.889L304.489 193H297.297L346.277 106.2H353.221L371.573 193H364.877ZM320.361 164.728H359.049L348.757 114.26L320.361 164.728Z" fill="url(#paint2_linear_219_10)"/>
<defs>
<linearGradient id="paint0_linear_219_10" x1="474.229" y1="232" x2="384.455" y2="141.788" gradientUnits="userSpaceOnUse">
<stop/>
<stop offset="1" stop-color="#9D0E05"/>
</linearGradient>
<linearGradient id="paint1_linear_219_10" x1="473.761" y1="78" x2="438.904" y2="7.04223" gradientUnits="userSpaceOnUse">
<stop/>
<stop offset="1" stop-color="#9D0E05"/>
</linearGradient>
<linearGradient id="paint2_linear_219_10" x1="221.385" y1="234" x2="172.339" y2="80.2599" gradientUnits="userSpaceOnUse">
<stop/>
<stop offset="1" stop-color="#9D0E05"/>
</linearGradient>
</defs>
</svg>
