<svg width="479" height="113" viewBox="0 0 479 113" fill="none" xmlns="http://www.w3.org/2000/svg">
<path d="M32.24 110.364C24.3867 110.364 17.856 108.587 12.648 105.032C7.52267 101.395 4.25733 96.352 2.852 89.904L8.68 86.928C9.672 92.2187 12.1933 96.3933 16.244 99.452C20.2947 102.511 25.7093 104.04 32.488 104.04C39.184 104.04 44.6813 102.635 48.98 99.824C53.3613 96.9307 56.048 93.0453 57.04 88.168C57.6187 85.2747 57.4947 82.7533 56.668 80.604C55.924 78.4547 54.3533 76.5947 51.956 75.024C49.5587 73.3707 47.4093 72.1307 45.508 71.304C43.6893 70.3947 40.9613 69.2787 37.324 67.956C34.5133 66.964 32.1573 66.096 30.256 65.352C28.3547 64.5253 26.164 63.368 23.684 61.88C21.2867 60.3093 19.3853 58.6973 17.98 57.044C16.6573 55.308 15.624 53.1173 14.88 50.472C14.2187 47.8267 14.1773 44.9333 14.756 41.792C16.0787 35.096 19.468 29.9293 24.924 26.292C30.4627 22.6547 36.6627 20.836 43.524 20.836C50.5507 20.836 56.2547 22.5307 60.636 25.92C65.0173 29.2267 68.0347 33.5667 69.688 38.94L63.86 41.916C60.8013 32.0787 53.8987 27.16 43.152 27.16C37.8613 27.16 33.1493 28.524 29.016 31.252C24.9653 33.98 22.444 37.7 21.452 42.412C20.8733 45.3053 20.956 47.8267 21.7 49.976C22.5267 52.1253 24.0973 54.0267 26.412 55.68C28.8093 57.2507 30.9587 58.4907 32.86 59.4C34.7613 60.2267 37.4893 61.3013 41.044 62.624C44.02 63.6987 46.376 64.608 48.112 65.352C49.9307 66.096 52.1213 67.2533 54.684 68.824C57.2467 70.3947 59.148 72.0067 60.388 73.66C61.7107 75.3133 62.7027 77.504 63.364 80.232C64.108 82.8773 64.1907 85.7707 63.612 88.912C62.2067 95.856 58.652 101.188 52.948 104.908C47.244 108.545 40.3413 110.364 32.24 110.364ZM91.0606 22.2H97.6326L82.3806 109H75.8086L91.0606 22.2ZM193.678 68.576L193.058 71.8C191.074 82.7947 185.701 91.9707 176.938 99.328C168.258 106.685 157.801 110.364 145.566 110.364C132.009 110.364 121.593 105.859 114.318 96.848C107.044 87.8373 104.522 76.9253 106.754 64.112C108.904 51.7947 114.856 41.5027 124.61 33.236C134.365 24.9693 145.566 20.836 158.214 20.836C166.564 20.836 173.714 22.7373 179.666 26.54C185.618 30.26 190.206 35.344 193.43 41.792L187.602 44.892C181.65 33.0707 171.772 27.16 157.966 27.16C146.806 27.16 137.01 30.7973 128.578 38.072C120.146 45.3467 115.021 54.3573 113.202 65.104C111.384 76.016 113.45 85.2333 119.402 92.756C125.437 100.279 134.241 104.04 145.814 104.04C155.817 104.04 164.414 101.271 171.606 95.732C178.881 90.1107 183.634 83.1253 185.866 74.776H149.038L150.154 68.576H193.678ZM296.822 22.2L281.57 109H274.998L288.39 32.492L247.346 85.192H246.23L223.29 31.376L209.65 109H203.078L218.33 22.2H226.142L248.214 73.908L288.39 22.2H296.822ZM361.754 109L357.29 86.928H313.766L301.366 109H294.174L343.154 22.2H350.098L368.45 109H361.754ZM317.238 80.728H355.926L345.634 30.26L317.238 80.728ZM403.326 22.2H408.906L393.654 109H387.082L401.094 29.64L379.89 35.84L379.27 30.012L403.326 22.2ZM475.87 44.768C474.3 53.8613 468.926 60.392 459.75 64.36C464.049 66.4267 467.273 69.4027 469.422 73.288C471.572 77.1733 472.233 81.5547 471.406 86.432C470.001 94.12 466.281 100.031 460.246 104.164C454.212 108.297 446.896 110.364 438.298 110.364C430.197 110.364 423.749 108.091 418.954 103.544C414.242 98.9147 412.589 92.7973 413.994 85.192C414.821 80.1493 416.929 75.8093 420.318 72.172C423.79 68.5347 428.089 65.8067 433.214 63.988C429.742 61.9213 427.138 59.152 425.402 55.68C423.749 52.1253 423.294 48.116 424.038 43.652C425.361 36.2947 428.833 30.6733 434.454 26.788C440.158 22.82 446.689 20.836 454.046 20.836C460.99 20.836 466.694 23.0267 471.158 27.408C475.622 31.7067 477.193 37.4933 475.87 44.768ZM446.978 61.26C452.682 61.26 457.56 59.7307 461.61 56.672C465.744 53.6133 468.306 49.48 469.298 44.272C470.208 38.8987 469.092 34.724 465.95 31.748C462.892 28.6893 458.593 27.16 453.054 27.16C447.433 27.16 442.514 28.6893 438.298 31.748C434.165 34.724 431.602 38.8987 430.61 44.272C429.701 49.48 430.817 53.6133 433.958 56.672C437.1 59.7307 441.44 61.26 446.978 61.26ZM464.71 85.812C465.702 80.1907 464.421 75.768 460.866 72.544C457.394 69.32 452.393 67.708 445.862 67.708C439.166 67.708 433.504 69.32 428.874 72.544C424.328 75.768 421.558 80.1907 420.566 85.812C419.492 91.516 420.69 95.98 424.162 99.204C427.634 102.428 432.718 104.04 439.414 104.04C446.193 104.04 451.856 102.428 456.402 99.204C460.949 95.98 463.718 91.516 464.71 85.812Z" fill="url(#paint0_linear_219_12)"/>
<defs>
<linearGradient id="paint0_linear_219_12" x1="277.6" y1="149" x2="237.631" y2="-9.15645" gradientUnits="userSpaceOnUse">
<stop/>
<stop offset="1" stop-color="#9D0E05"/>
</linearGradient>
</defs>
</svg>
